<mxfile host="Electron" modified="2023-11-20T10:15:09.991Z" agent="Mozilla/5.0 (X11; Linux x86_64) AppleWebKit/537.36 (KHTML, like Gecko) draw.io/22.1.2 Chrome/114.0.5735.289 Electron/25.9.4 Safari/537.36" etag="rmNdR8i1ae5PAqWYK7rQ" version="22.1.2" type="device">
  <diagram name="Page-1" id="5c6pqESAU4oWR75uWX4A">
    <mxGraphModel dx="576" dy="333" grid="1" gridSize="10" guides="1" tooltips="1" connect="1" arrows="1" fold="1" page="1" pageScale="1" pageWidth="850" pageHeight="1100" math="1" shadow="0">
      <root>
        <mxCell id="0" />
        <mxCell id="1" parent="0" />
        <mxCell id="arnQ18gMftWQS2YaIN-e-40" value="$$b[0]$$" style="text;html=1;align=center;verticalAlign=middle;resizable=0;points=[];autosize=1;strokeColor=none;fillColor=none;" vertex="1" parent="1">
          <mxGeometry x="225" y="470" width="70" height="30" as="geometry" />
        </mxCell>
        <mxCell id="arnQ18gMftWQS2YaIN-e-41" value="$$b[1]$$" style="text;html=1;align=center;verticalAlign=middle;resizable=0;points=[];autosize=1;strokeColor=none;fillColor=none;" vertex="1" parent="1">
          <mxGeometry x="265" y="470" width="70" height="30" as="geometry" />
        </mxCell>
        <mxCell id="arnQ18gMftWQS2YaIN-e-30" value="" style="rounded=0;whiteSpace=wrap;html=1;fillColor=#f8cecc;strokeColor=#b85450;dashed=1;" vertex="1" parent="1">
          <mxGeometry x="240" y="400" width="40" height="30" as="geometry" />
        </mxCell>
        <mxCell id="arnQ18gMftWQS2YaIN-e-29" value="" style="rounded=0;whiteSpace=wrap;html=1;fillColor=#fff2cc;strokeColor=#d6b656;dashed=1;" vertex="1" parent="1">
          <mxGeometry x="280" y="400" width="120" height="30" as="geometry" />
        </mxCell>
        <mxCell id="arnQ18gMftWQS2YaIN-e-28" value="" style="rounded=0;whiteSpace=wrap;html=1;fillColor=#fff2cc;strokeColor=#d6b656;dashed=1;" vertex="1" parent="1">
          <mxGeometry x="520" y="400" width="40" height="70" as="geometry" />
        </mxCell>
        <mxCell id="arnQ18gMftWQS2YaIN-e-27" value="" style="rounded=0;whiteSpace=wrap;html=1;fillColor=#d5e8d4;strokeColor=#82b366;dashed=1;" vertex="1" parent="1">
          <mxGeometry x="400" y="400" width="120" height="70" as="geometry" />
        </mxCell>
        <mxCell id="arnQ18gMftWQS2YaIN-e-1" value="$$q[0]$$" style="text;html=1;align=center;verticalAlign=middle;resizable=0;points=[];autosize=1;strokeColor=none;fillColor=none;" vertex="1" parent="1">
          <mxGeometry x="225" y="400" width="70" height="30" as="geometry" />
        </mxCell>
        <mxCell id="arnQ18gMftWQS2YaIN-e-2" value="$$q[1]$$" style="text;html=1;align=center;verticalAlign=middle;resizable=0;points=[];autosize=1;strokeColor=none;fillColor=none;" vertex="1" parent="1">
          <mxGeometry x="265" y="400" width="70" height="30" as="geometry" />
        </mxCell>
        <mxCell id="arnQ18gMftWQS2YaIN-e-3" value="$$q[2]$$" style="text;html=1;align=center;verticalAlign=middle;resizable=0;points=[];autosize=1;strokeColor=none;fillColor=none;" vertex="1" parent="1">
          <mxGeometry x="305" y="400" width="70" height="30" as="geometry" />
        </mxCell>
        <mxCell id="arnQ18gMftWQS2YaIN-e-5" value="$$q[3]$$" style="text;html=1;align=center;verticalAlign=middle;resizable=0;points=[];autosize=1;strokeColor=none;fillColor=none;" vertex="1" parent="1">
          <mxGeometry x="345" y="400" width="70" height="30" as="geometry" />
        </mxCell>
        <mxCell id="arnQ18gMftWQS2YaIN-e-6" value="$$q[4]$$" style="text;html=1;align=center;verticalAlign=middle;resizable=0;points=[];autosize=1;strokeColor=none;fillColor=none;" vertex="1" parent="1">
          <mxGeometry x="385" y="400" width="70" height="30" as="geometry" />
        </mxCell>
        <mxCell id="arnQ18gMftWQS2YaIN-e-11" value="$$q[5]$$" style="text;html=1;align=center;verticalAlign=middle;resizable=0;points=[];autosize=1;strokeColor=none;fillColor=none;" vertex="1" parent="1">
          <mxGeometry x="425" y="400" width="70" height="30" as="geometry" />
        </mxCell>
        <mxCell id="arnQ18gMftWQS2YaIN-e-12" value="$$q[6]$$" style="text;html=1;align=center;verticalAlign=middle;resizable=0;points=[];autosize=1;strokeColor=none;fillColor=none;" vertex="1" parent="1">
          <mxGeometry x="465" y="400" width="70" height="30" as="geometry" />
        </mxCell>
        <mxCell id="arnQ18gMftWQS2YaIN-e-13" value="$$q[7]$$" style="text;html=1;align=center;verticalAlign=middle;resizable=0;points=[];autosize=1;strokeColor=none;fillColor=none;" vertex="1" parent="1">
          <mxGeometry x="505" y="400" width="70" height="30" as="geometry" />
        </mxCell>
        <mxCell id="arnQ18gMftWQS2YaIN-e-15" value="$$C[0]$$" style="text;html=1;align=center;verticalAlign=middle;resizable=0;points=[];autosize=1;strokeColor=none;fillColor=none;" vertex="1" parent="1">
          <mxGeometry x="385" y="440" width="70" height="30" as="geometry" />
        </mxCell>
        <mxCell id="arnQ18gMftWQS2YaIN-e-16" value="$$C[1]$$" style="text;html=1;align=center;verticalAlign=middle;resizable=0;points=[];autosize=1;strokeColor=none;fillColor=none;" vertex="1" parent="1">
          <mxGeometry x="425" y="440" width="70" height="30" as="geometry" />
        </mxCell>
        <mxCell id="arnQ18gMftWQS2YaIN-e-17" value="$$C[2]$$" style="text;html=1;align=center;verticalAlign=middle;resizable=0;points=[];autosize=1;strokeColor=none;fillColor=none;" vertex="1" parent="1">
          <mxGeometry x="465" y="440" width="70" height="30" as="geometry" />
        </mxCell>
        <mxCell id="arnQ18gMftWQS2YaIN-e-18" value="$$C[3]$$" style="text;html=1;align=center;verticalAlign=middle;resizable=0;points=[];autosize=1;strokeColor=none;fillColor=none;" vertex="1" parent="1">
          <mxGeometry x="505" y="440" width="70" height="30" as="geometry" />
        </mxCell>
        <mxCell id="arnQ18gMftWQS2YaIN-e-31" value="$$\oplus$$" style="text;html=1;align=center;verticalAlign=middle;resizable=0;points=[];autosize=1;strokeColor=none;fillColor=none;" vertex="1" parent="1">
          <mxGeometry x="220" y="370" width="80" height="30" as="geometry" />
        </mxCell>
        <mxCell id="arnQ18gMftWQS2YaIN-e-32" value="Half-adder" style="text;html=1;align=center;verticalAlign=middle;resizable=0;points=[];autosize=1;strokeColor=none;fillColor=none;" vertex="1" parent="1">
          <mxGeometry x="300" y="370" width="80" height="30" as="geometry" />
        </mxCell>
        <mxCell id="arnQ18gMftWQS2YaIN-e-33" value="Full-adder" style="text;html=1;align=center;verticalAlign=middle;resizable=0;points=[];autosize=1;strokeColor=none;fillColor=none;" vertex="1" parent="1">
          <mxGeometry x="420" y="370" width="80" height="30" as="geometry" />
        </mxCell>
        <mxCell id="arnQ18gMftWQS2YaIN-e-34" value="Half-adder" style="text;html=1;align=center;verticalAlign=middle;resizable=0;points=[];autosize=1;strokeColor=none;fillColor=none;" vertex="1" parent="1">
          <mxGeometry x="500" y="370" width="80" height="30" as="geometry" />
        </mxCell>
        <mxCell id="arnQ18gMftWQS2YaIN-e-35" value="" style="endArrow=none;html=1;rounded=0;" edge="1" parent="1">
          <mxGeometry width="50" height="50" relative="1" as="geometry">
            <mxPoint x="240" y="470" as="sourcePoint" />
            <mxPoint x="560" y="470" as="targetPoint" />
          </mxGeometry>
        </mxCell>
        <mxCell id="arnQ18gMftWQS2YaIN-e-36" value="&lt;b&gt;&lt;font style=&quot;font-size: 15px;&quot;&gt;+&lt;/font&gt;&lt;/b&gt;" style="text;html=1;align=center;verticalAlign=middle;resizable=0;points=[];autosize=1;strokeColor=none;fillColor=none;" vertex="1" parent="1">
          <mxGeometry x="210" y="440" width="30" height="30" as="geometry" />
        </mxCell>
        <mxCell id="arnQ18gMftWQS2YaIN-e-37" value="&lt;b&gt;&lt;font style=&quot;font-size: 15px;&quot;&gt;=&lt;/font&gt;&lt;/b&gt;" style="text;html=1;align=center;verticalAlign=middle;resizable=0;points=[];autosize=1;strokeColor=none;fillColor=none;" vertex="1" parent="1">
          <mxGeometry x="210" y="470" width="30" height="30" as="geometry" />
        </mxCell>
        <mxCell id="arnQ18gMftWQS2YaIN-e-42" value="$$b[2]$$" style="text;html=1;align=center;verticalAlign=middle;resizable=0;points=[];autosize=1;strokeColor=none;fillColor=none;" vertex="1" parent="1">
          <mxGeometry x="305" y="470" width="70" height="30" as="geometry" />
        </mxCell>
        <mxCell id="arnQ18gMftWQS2YaIN-e-43" value="$$b[3]$$" style="text;html=1;align=center;verticalAlign=middle;resizable=0;points=[];autosize=1;strokeColor=none;fillColor=none;" vertex="1" parent="1">
          <mxGeometry x="345" y="470" width="70" height="30" as="geometry" />
        </mxCell>
        <mxCell id="arnQ18gMftWQS2YaIN-e-44" value="$$b[4]$$" style="text;html=1;align=center;verticalAlign=middle;resizable=0;points=[];autosize=1;strokeColor=none;fillColor=none;" vertex="1" parent="1">
          <mxGeometry x="385" y="470" width="70" height="30" as="geometry" />
        </mxCell>
        <mxCell id="arnQ18gMftWQS2YaIN-e-45" value="$$b[5]$$" style="text;html=1;align=center;verticalAlign=middle;resizable=0;points=[];autosize=1;strokeColor=none;fillColor=none;" vertex="1" parent="1">
          <mxGeometry x="425" y="470" width="70" height="30" as="geometry" />
        </mxCell>
        <mxCell id="arnQ18gMftWQS2YaIN-e-46" value="$$b[6]$$" style="text;html=1;align=center;verticalAlign=middle;resizable=0;points=[];autosize=1;strokeColor=none;fillColor=none;" vertex="1" parent="1">
          <mxGeometry x="465" y="470" width="70" height="30" as="geometry" />
        </mxCell>
        <mxCell id="arnQ18gMftWQS2YaIN-e-47" value="$$b[7]$$" style="text;html=1;align=center;verticalAlign=middle;resizable=0;points=[];autosize=1;strokeColor=none;fillColor=none;" vertex="1" parent="1">
          <mxGeometry x="505" y="470" width="70" height="30" as="geometry" />
        </mxCell>
      </root>
    </mxGraphModel>
  </diagram>
</mxfile>
